<svg id="图层_1" data-name="图层 1" xmlns="http://www.w3.org/2000/svg" viewBox="0 0 76 66"><defs><style>.cls-1{fill:#62fc39;stroke:#63c900;}.cls-1,.cls-2,.cls-3,.cls-4,.cls-6{stroke-miterlimit:10;}.cls-1,.cls-2,.cls-3{stroke-width:0.5px;}.cls-1,.cls-2,.cls-3,.cls-5{isolation:isolate;}.cls-2{fill:#94f052;stroke:#009300;}.cls-3{fill:#21cc33;stroke:#1ba304;}.cls-4,.cls-6{fill:#fff;}.cls-4{stroke:#02a302;stroke-width:0.3px;}.cls-5{fill:#bfbfbf;}.cls-6{stroke:#008700;}</style></defs><circle class="cls-1" cx="37.72" cy="32.5" r="21.06"/><path class="cls-2" d="M54.1,26.17H43.72a7.47,7.47,0,0,0-11.41,0h-11a7.49,7.49,0,0,0,0,15h9.2V48.4a7.49,7.49,0,1,0,15,0V41.15h8.6a7.49,7.49,0,1,0,0-15Z"/><circle class="cls-3" cx="21.79" cy="33.82" r="6.46"/><circle class="cls-3" cx="53.63" cy="33.82" r="6.46"/><circle class="cls-3" cx="38.01" cy="48.2" r="6.46"/><circle class="cls-4" cx="38.04" cy="33.71" r="6.1"/><rect class="cls-5" x="33.86" y="32.32" width="8.62" height="2.78" rx="0.69"/><rect class="cls-5" x="33.86" y="32.32" width="8.62" height="2.78" rx="0.69" transform="translate(71.87 -4.46) rotate(90)"/><path class="cls-6" d="M22.08,48.25H18.81a.67.67,0,0,1-.57-.91l3.25-9.43a.63.63,0,0,1,.57-.44h5.48a.67.67,0,0,1,.56.93l-1.89,5.14h3.56a.68.68,0,0,1,.46,1.12l-8.73,11A.62.62,0,0,1,20.45,55Zm0,0"/></svg>