<svg id="图层_1" data-name="图层 1" xmlns="http://www.w3.org/2000/svg" viewBox="0 0 76 66"><defs><style>.cls-1{fill:#62fc39;stroke:#63c900;}.cls-1,.cls-2,.cls-3,.cls-4,.cls-8{stroke-miterlimit:10;}.cls-1,.cls-2,.cls-3{stroke-width:0.5px;}.cls-1,.cls-2,.cls-3,.cls-5,.cls-6,.cls-8{isolation:isolate;}.cls-2{fill:#94f052;stroke:#009300;}.cls-3{fill:#21cc33;stroke:#1ba304;}.cls-4,.cls-7,.cls-8{fill:#fff;}.cls-4{stroke:#02a302;stroke-width:0.3px;}.cls-5{fill:#bfbfbf;}.cls-6{fill:#199808;}.cls-7{font-size:12.46px;font-family:zihun143-zhengkuchaojihei;}.cls-8{stroke:#038811;}</style></defs><circle class="cls-1" cx="37.72" cy="32.5" r="21.06"/><path class="cls-2" d="M54.1,26.17H43.72a7.47,7.47,0,0,0-11.41,0h-11a7.49,7.49,0,0,0,0,15h9.2V48.4a7.49,7.49,0,1,0,15,0V41.15h8.6a7.49,7.49,0,1,0,0-15Z"/><circle class="cls-3" cx="21.79" cy="33.82" r="6.46"/><circle class="cls-3" cx="53.63" cy="33.82" r="6.46"/><circle class="cls-3" cx="38.01" cy="48.2" r="6.46"/><circle class="cls-4" cx="38.04" cy="33.71" r="6.1"/><rect class="cls-5" x="33.86" y="32.32" width="8.62" height="2.78" rx="0.69"/><rect class="cls-5" x="33.86" y="32.32" width="8.62" height="2.78" rx="0.69" transform="translate(71.87 -4.46) rotate(90)"/><circle class="cls-6" cx="56.16" cy="18.66" r="6.48"/><text class="cls-7" transform="translate(53.63 22.56)">1</text><path class="cls-8" d="M23.3,29.41a15.29,15.29,0,0,1,29.83,4.24h3.42a1.53,1.53,0,0,1,1,2.67l-6.13,5.61a1.56,1.56,0,0,1-2.08,0l-6.13-5.61a1.54,1.54,0,0,1,1-2.68H48A10.21,10.21,0,1,0,34.71,43.85c.3.1.61.18.91.25l-1.56,4.82c-.3-.08-.61-.14-.91-.24A15.3,15.3,0,0,1,23.3,29.41Z"/></svg>