<svg id="图层_1" data-name="图层 1" xmlns="http://www.w3.org/2000/svg" viewBox="0 0 76 66"><defs><style>.cls-1{fill:#21cc33;}.cls-1,.cls-2,.cls-3,.cls-4{isolation:isolate;}.cls-2{fill:#62fc39;}.cls-2,.cls-3{stroke:#239908;}.cls-2,.cls-3,.cls-4,.cls-5{stroke-miterlimit:10;}.cls-3{fill:#4bd629;}.cls-4,.cls-5{fill:#fff;stroke:#359906;stroke-width:2px;}</style></defs><g id="双电机前进"><rect class="cls-1" x="19.5" y="36.11" width="36.09" height="5.11"/><rect class="cls-2" x="22.25" y="24.28" width="30.47" height="26.63" rx="3.87"/><rect class="cls-3" x="10.48" y="29.34" width="9.53" height="17.71" rx="2.38"/><rect class="cls-3" x="54.67" y="29.34" width="9.53" height="17.71" rx="2.38" transform="translate(118.87 76.38) rotate(-180)"/><rect class="cls-4" x="32.52" y="39.03" width="10.28" height="5.34" rx="2.54" transform="translate(75.31 83.4) rotate(180)"/><rect class="cls-4" x="32.76" y="32.69" width="10.28" height="5.09" rx="2.54" transform="translate(75.8 70.46) rotate(-180)"/><path class="cls-5" d="M28,27.19h4.31a.83.83,0,0,1,.87.78v1.86a.84.84,0,0,0,.88.78H41.6a.83.83,0,0,0,.87-.78V28a.83.83,0,0,1,.88-.78h4.3A2,2,0,0,0,49.32,24l-9.84-8a2.34,2.34,0,0,0-3.33,0l-9.83,8A1.94,1.94,0,0,0,28,27.19Z"/></g></svg>