<svg id="图层_1" data-name="图层 1" xmlns="http://www.w3.org/2000/svg" viewBox="0 0 76 66"><defs><style>.cls-1{fill:#21cc33;}.cls-1,.cls-2,.cls-3,.cls-4{isolation:isolate;}.cls-2{fill:#62fc39;}.cls-2,.cls-3{stroke:#239908;}.cls-2,.cls-3,.cls-4,.cls-5{stroke-miterlimit:10;}.cls-3{fill:#4bd629;}.cls-4,.cls-5{fill:#fff;stroke:#359906;stroke-width:2px;}</style></defs><g id="双电机后退"><rect class="cls-1" x="19.68" y="36.55" width="36.09" height="5.11"/><rect class="cls-2" x="22.43" y="24.72" width="30.47" height="26.63" rx="3.87"/><rect class="cls-3" x="10.66" y="29.78" width="9.53" height="17.71" rx="2.38"/><rect class="cls-3" x="54.85" y="29.78" width="9.53" height="17.71" rx="2.38" transform="translate(119.24 77.27) rotate(-180)"/><rect class="cls-4" x="33.02" y="11.93" width="10.28" height="5.34" rx="2.54"/><rect class="cls-4" x="32.78" y="18.53" width="10.28" height="5.09" rx="2.54"/><path class="cls-5" d="M47.83,29.12h-4.3a.84.84,0,0,1-.88-.79V26.48a.83.83,0,0,0-.87-.79H34.22a.83.83,0,0,0-.87.79v1.85a.84.84,0,0,1-.88.79h-4.3a1.94,1.94,0,0,0-1.67,3.2l9.83,8a2.35,2.35,0,0,0,3.34,0l9.83-8A1.94,1.94,0,0,0,47.83,29.12Z"/></g></svg>