<svg id="图层_1" data-name="图层 1" xmlns="http://www.w3.org/2000/svg" viewBox="0 0 76 66"><defs><style>.cls-1{fill:#21cc33;}.cls-1,.cls-2,.cls-3,.cls-4{isolation:isolate;}.cls-2{fill:#62fc39;}.cls-2,.cls-3{stroke:#239908;}.cls-2,.cls-3,.cls-4,.cls-5{stroke-miterlimit:10;}.cls-3{fill:#4bd629;}.cls-4,.cls-5{fill:#fff;stroke:#359906;stroke-width:2px;}</style></defs><g id="双电机左转"><rect class="cls-1" x="19.63" y="36.12" width="36.09" height="5.11"/><rect class="cls-2" x="22.37" y="24.29" width="30.47" height="26.63" rx="3.87"/><rect class="cls-3" x="10.61" y="29.35" width="9.53" height="17.71" rx="2.38"/><rect class="cls-3" x="54.8" y="29.35" width="9.53" height="17.71" rx="2.38" transform="translate(119.13 76.4) rotate(-180)"/><rect class="cls-4" x="40.09" y="44.72" width="8.35" height="4.85" rx="2.42"/><rect class="cls-4" x="39.89" y="38.96" width="8.35" height="4.62" rx="2.31"/><path class="cls-5" d="M22.93,22.29l9.27-7.53a1.52,1.52,0,0,1,2.48,1.17v4.19H46a2.21,2.21,0,0,1,2.2,2.2V36.08a1.08,1.08,0,0,1-1.09,1.08H40.81a1.08,1.08,0,0,1-1.08-1.08V28.13h-5V31a1.52,1.52,0,0,1-2.48,1.17l-9.27-7.53A1.53,1.53,0,0,1,22.93,22.29Z"/></g></svg>