<svg id="图层_1" data-name="图层 1" xmlns="http://www.w3.org/2000/svg" viewBox="0 0 76 66"><defs><style>.cls-1{fill:#21cc33;}.cls-1,.cls-2,.cls-3,.cls-4{isolation:isolate;}.cls-2{fill:#62fc39;}.cls-2,.cls-3{stroke:#239908;}.cls-2,.cls-3,.cls-4,.cls-5{stroke-miterlimit:10;}.cls-3{fill:#4bd629;}.cls-4,.cls-5{fill:#fff;stroke:#359906;stroke-width:2px;}</style></defs><g id="双电机右转"><rect class="cls-1" x="19.63" y="36.12" width="36.09" height="5.11"/><rect class="cls-2" x="22.37" y="24.29" width="30.47" height="26.63" rx="3.87"/><rect class="cls-3" x="10.61" y="29.35" width="9.53" height="17.71" rx="2.38"/><rect class="cls-3" x="54.8" y="29.35" width="9.53" height="17.71" rx="2.38" transform="translate(119.13 76.4) rotate(-180)"/><rect class="cls-4" x="27.71" y="44.72" width="8.35" height="4.85" rx="2.42" transform="translate(63.78 94.29) rotate(180)"/><rect class="cls-4" x="27.91" y="38.96" width="8.35" height="4.62" rx="2.31" transform="translate(64.18 82.53) rotate(180)"/><path class="cls-5" d="M53.23,22.29,44,14.76a1.52,1.52,0,0,0-2.48,1.17v4.19H30.14a2.21,2.21,0,0,0-2.2,2.2V36.08A1.08,1.08,0,0,0,29,37.16h6.32a1.08,1.08,0,0,0,1.08-1.08V28.13h5V31A1.52,1.52,0,0,0,44,32.18l9.27-7.53A1.53,1.53,0,0,0,53.23,22.29Z"/></g></svg>