<svg id="图层_1" data-name="图层 1" xmlns="http://www.w3.org/2000/svg" viewBox="0 0 76 66"><defs><style>.cls-1{fill:#1886ea;}.cls-1,.cls-2,.cls-3,.cls-4,.cls-5,.cls-6{stroke:#0964c6;}.cls-1,.cls-10,.cls-2,.cls-3,.cls-4,.cls-5,.cls-6,.cls-8,.cls-9{stroke-miterlimit:10;}.cls-1,.cls-2,.cls-3{stroke-width:0.5px;}.cls-1,.cls-2{isolation:isolate;}.cls-10,.cls-2,.cls-3,.cls-6,.cls-7{fill:#fff;}.cls-4{fill:#0a0a0a;}.cls-4,.cls-5,.cls-9{stroke-width:0.2px;}.cls-5{fill:#d3d3d3;}.cls-6{stroke-width:0.3px;}.cls-8{fill:#2eebff;stroke:#232323;stroke-width:0.1px;}.cls-9{fill:none;stroke:#0054a0;}.cls-10{stroke:#000;}</style></defs><path class="cls-1" d="M36.52,27.16l-.09,1.69a.73.73,0,0,1-.32.56l-6.64,4.53a1.14,1.14,0,0,1-1.24,0l-14.59-8.9a.54.54,0,0,1-.26-.44l-.17-2.93Z"/><path class="cls-2" d="M13.21,21.7,13.14,20a.59.59,0,0,1,.39-.59l7.33-2.88a.91.91,0,0,1,.67,0l13.74,6.28a2.08,2.08,0,0,1,1.22,1.87l0,2.5L28.86,32.1,18.12,26.31a1,1,0,0,1-.41-.41l-1.22-2.35a1.54,1.54,0,0,0-.7-.66Z"/><path class="cls-3" d="M13.12,19.53,27.3,26.75a2.44,2.44,0,0,1,1.32,2l.24,3.35"/><ellipse class="cls-2" cx="30.83" cy="28.88" rx="1.56" ry="1.16" transform="translate(-4.49 52.06) rotate(-76.41)"/><ellipse class="cls-2" cx="34.82" cy="26.23" rx="1.56" ry="1.16" transform="translate(1.14 53.91) rotate(-76.41)"/><ellipse class="cls-4" cx="30.36" cy="28.75" rx="1.03" ry="0.73" transform="translate(-5.77 49.81) rotate(-73.68)"/><ellipse class="cls-5" cx="34.54" cy="26" rx="1.03" ry="0.73" transform="translate(-0.11 51.84) rotate(-73.68)"/><path class="cls-6" d="M14.41,18.32l.09,1.44a2.56,2.56,0,0,0,1.88.38c1.33-.11,1.5-.51,1.5-.51V18.32Z"/><ellipse class="cls-7" cx="30.06" cy="28.34" rx="0.17" ry="0.22"/><ellipse class="cls-7" cx="34.06" cy="25.91" rx="0.17" ry="0.22"/><path class="cls-6" d="M18.31,20l.11,1.5a2.44,2.44,0,0,0,1.85.37c1.28-.14,1.33-.65,1.33-.65V20Z"/><ellipse class="cls-6" cx="16.14" cy="18.32" rx="1.73" ry="0.75"/><path class="cls-6" d="M22.28,21.85v1.31a2.31,2.31,0,0,0,2,.58c1.42-.13,1.44-.53,1.44-.53V21.85Z"/><ellipse class="cls-6" cx="19.96" cy="19.98" rx="1.64" ry="0.73"/><path class="cls-6" d="M26.65,19.63,26.72,21s.36.58,1.73.47,1.44-.58,1.44-.58v-1.3Z"/><ellipse class="cls-6" cx="28.27" cy="19.63" rx="1.62" ry="0.78"/><path class="cls-6" d="M19.14,16.43v1.23a2.66,2.66,0,0,0,1.7.42c1.05-.07,1.31-.51,1.31-.51V16.43Z"/><path class="cls-6" d="M22.42,17.92v1.33a3.15,3.15,0,0,0,1.83.38c1.24,0,1.41-.39,1.41-.39l.07-1.32Z"/><ellipse class="cls-6" cx="24.08" cy="17.92" rx="1.65" ry="0.65"/><polygon class="cls-8" points="23.06 20.71 23.55 20.39 24.48 20.9 24.28 21.02 23.64 21.06 23.06 20.71"/><polygon class="cls-9" points="24.37 20.98 24.86 20.62 23.61 19.98 22.67 20.58 23.64 21.06 24.37 20.98"/><ellipse class="cls-6" cx="24" cy="21.85" rx="1.73" ry="0.81"/><ellipse class="cls-6" cx="20.64" cy="16.43" rx="1.51" ry="0.63"/><path class="cls-10" d="M44.21,42.14l6.63-5.36a.9.9,0,0,1,.93-.11L56.56,39a.89.89,0,0,0,1-.14l1.94-1.74a.87.87,0,0,1,1.41.38L64,46.89A.87.87,0,0,1,63.27,48L47.45,49.87a.87.87,0,0,1-.68-1.52l1.37-1.22A.88.88,0,0,0,48,45.72l-3.67-2.14A.88.88,0,0,1,44.21,42.14Z"/><ellipse class="cls-10" cx="42.58" cy="36.59" rx="4.45" ry="2.89" transform="translate(-1.3 1.57) rotate(-2.08)"/><ellipse class="cls-10" cx="35.94" cy="32.17" rx="3.71" ry="2.42" transform="translate(-1.14 1.32) rotate(-2.08)"/></svg>