<svg id="图层_1" data-name="图层 1" xmlns="http://www.w3.org/2000/svg" viewBox="0 0 76 66"><defs><style>.cls-1{fill:#1886ea;}.cls-1,.cls-2,.cls-3,.cls-4,.cls-5,.cls-6{stroke:#0964c6;}.cls-1,.cls-10,.cls-2,.cls-3,.cls-4,.cls-5,.cls-6,.cls-8,.cls-9{stroke-miterlimit:10;}.cls-1,.cls-2,.cls-3{stroke-width:0.5px;}.cls-1,.cls-2{isolation:isolate;}.cls-10,.cls-2,.cls-3,.cls-6,.cls-7{fill:#fff;}.cls-4{fill:#0a0a0a;}.cls-4,.cls-5,.cls-9{stroke-width:0.2px;}.cls-5{fill:#d3d3d3;}.cls-6{stroke-width:0.3px;}.cls-8{fill:#2eebff;stroke:#232323;stroke-width:0.1px;}.cls-9{fill:none;stroke:#0054a0;}.cls-10{stroke:#000;}</style></defs><path class="cls-1" d="M48.17,32.82,48,35.34a1.06,1.06,0,0,1-.47.84L37.61,43a1.74,1.74,0,0,1-1.86.06L13.9,29.68a.85.85,0,0,1-.4-.66l-.25-4.38Z"/><path class="cls-2" d="M13.25,24.64,13.15,22a.9.9,0,0,1,.58-.88l11-4.31a1.33,1.33,0,0,1,1,0L46.3,26.28a3.09,3.09,0,0,1,1.82,2.79l.05,3.75L36.7,40.22,20.61,31.55a1.52,1.52,0,0,1-.61-.62l-1.84-3.52a2.32,2.32,0,0,0-1-1Z"/><path class="cls-3" d="M13.12,21.38,34.35,32.2a3.67,3.67,0,0,1,2,3l.36,5"/><ellipse class="cls-2" cx="39.64" cy="35.4" rx="2.34" ry="1.74" transform="translate(-4.08 65.61) rotate(-76.41)"/><ellipse class="cls-2" cx="45.62" cy="31.43" rx="2.34" ry="1.74" transform="translate(4.35 68.38) rotate(-76.41)"/><ellipse class="cls-4" cx="38.94" cy="35.21" rx="1.55" ry="1.1" transform="translate(-5.79 62.68) rotate(-73.68)"/><ellipse class="cls-5" cx="45.21" cy="31.07" rx="1.55" ry="1.1" transform="translate(2.68 65.73) rotate(-73.68)"/><path class="cls-6" d="M15.05,19.57l.13,2.16a3.87,3.87,0,0,0,2.82.58c2-.17,2.24-.76,2.24-.76v-2Z"/><ellipse class="cls-7" cx="38.49" cy="34.58" rx="0.26" ry="0.33"/><ellipse class="cls-7" cx="44.49" cy="30.94" rx="0.26" ry="0.33"/><path class="cls-6" d="M20.9,22.06l.16,2.25a3.69,3.69,0,0,0,2.77.56c1.91-.21,2-1,2-1V22.06Z"/><ellipse class="cls-6" cx="17.65" cy="19.57" rx="2.6" ry="1.12"/><path class="cls-6" d="M26.84,24.87v1.95a3.46,3.46,0,0,0,3,.88C32,27.51,32,26.9,32,26.9v-2Z"/><ellipse class="cls-6" cx="23.36" cy="22.06" rx="2.46" ry="1.09"/><path class="cls-6" d="M33.38,21.55l.11,2.1s.54.87,2.6.71,2.15-.88,2.15-.88V21.55Z"/><ellipse class="cls-6" cx="35.81" cy="21.55" rx="2.43" ry="1.17"/><path class="cls-6" d="M22.13,16.74v1.85a4,4,0,0,0,2.55.63c1.58-.11,2-.77,2-.77V16.74Z"/><path class="cls-6" d="M27.06,19v2a4.68,4.68,0,0,0,2.73.58c1.86-.06,2.11-.6,2.11-.6L32,19Z"/><ellipse class="cls-6" cx="29.53" cy="18.98" rx="2.48" ry="0.97"/><polygon class="cls-8" points="28 23.16 28.74 22.68 30.14 23.44 29.84 23.61 28.88 23.68 28 23.16"/><polygon class="cls-9" points="29.98 23.57 30.71 23.02 28.83 22.06 27.42 22.96 28.88 23.68 29.98 23.57"/><ellipse class="cls-6" cx="29.42" cy="24.87" rx="2.59" ry="1.22"/><ellipse class="cls-6" cx="24.39" cy="16.74" rx="2.26" ry="0.94"/><path class="cls-10" d="M43,43.16,49.81,38a.87.87,0,0,1,.93-.07l4.71,2.44a.87.87,0,0,0,1-.1l2-1.66a.87.87,0,0,1,1.4.42l2.79,9.55a.88.88,0,0,1-.77,1.12L46,51a.87.87,0,0,1-.63-1.54l1.41-1.17a.88.88,0,0,0-.09-1.42L43,44.6A.87.87,0,0,1,43,43.16Z"/></svg>