<svg id="图层_1" data-name="图层 1" xmlns="http://www.w3.org/2000/svg" viewBox="0 0 76 66"><defs><style>.cls-1{fill:#1886ea;}.cls-1,.cls-2,.cls-3,.cls-4,.cls-5,.cls-6{stroke:#0964c6;}.cls-1,.cls-10,.cls-2,.cls-3,.cls-4,.cls-5,.cls-6,.cls-8,.cls-9{stroke-miterlimit:10;}.cls-1,.cls-2,.cls-3{stroke-width:0.5px;}.cls-1,.cls-2{isolation:isolate;}.cls-10,.cls-2,.cls-3,.cls-6,.cls-7{fill:#fff;}.cls-4{fill:#0a0a0a;}.cls-4,.cls-5,.cls-9{stroke-width:0.2px;}.cls-5{fill:#d3d3d3;}.cls-6{stroke-width:0.3px;}.cls-8{fill:#2eebff;stroke:#232323;stroke-width:0.1px;}.cls-9{fill:none;stroke:#0054a0;}.cls-10{stroke:#000;}</style></defs><path class="cls-1" d="M41.06,29.37l-.11,2a.85.85,0,0,1-.37.67l-7.94,5.41a1.37,1.37,0,0,1-1.48,0L13.74,26.87a.71.71,0,0,1-.32-.53l-.2-3.49Z"/><path class="cls-2" d="M13.22,22.85l-.08-2.08a.74.74,0,0,1,.47-.71l8.76-3.43a1,1,0,0,1,.79,0l16.41,7.5A2.47,2.47,0,0,1,41,26.38l0,3-9.15,5.89-12.82-6.9a1.24,1.24,0,0,1-.49-.5l-1.46-2.8a1.77,1.77,0,0,0-.83-.79Z"/><path class="cls-3" d="M13.12,20.25l16.93,8.63a2.9,2.9,0,0,1,1.58,2.39l.28,4"/><ellipse class="cls-2" cx="34.26" cy="31.42" rx="1.86" ry="1.39" transform="translate(-4.33 57.34) rotate(-76.41)"/><ellipse class="cls-2" cx="39.03" cy="28.26" rx="1.86" ry="1.39" transform="translate(2.39 59.55) rotate(-76.41)"/><ellipse class="cls-4" cx="33.7" cy="31.27" rx="1.23" ry="0.88" transform="translate(-5.78 54.83) rotate(-73.68)"/><ellipse class="cls-5" cx="38.7" cy="27.98" rx="1.23" ry="0.88" transform="translate(0.98 57.25) rotate(-73.68)"/><path class="cls-6" d="M14.66,18.81l.1,1.72A3.09,3.09,0,0,0,17,21c1.59-.13,1.79-.61,1.79-.61V18.81Z"/><ellipse class="cls-7" cx="33.35" cy="30.77" rx="0.2" ry="0.26"/><ellipse class="cls-7" cx="38.12" cy="27.87" rx="0.2" ry="0.26"/><path class="cls-6" d="M19.32,20.79l.13,1.79a2.93,2.93,0,0,0,2.21.45c1.52-.17,1.59-.78,1.59-.78V20.79Z"/><ellipse class="cls-6" cx="16.73" cy="18.81" rx="2.07" ry="0.89"/><path class="cls-6" d="M24.06,23v1.56a2.73,2.73,0,0,0,2.39.69c1.71-.15,1.73-.63,1.73-.63V23Z"/><ellipse class="cls-6" cx="21.29" cy="20.79" rx="1.96" ry="0.87"/><path class="cls-6" d="M29.27,20.38l.09,1.68s.43.69,2.07.56,1.71-.7,1.71-.7V20.38Z"/><ellipse class="cls-6" cx="31.21" cy="20.38" rx="1.93" ry="0.93"/><path class="cls-6" d="M20.3,16.55V18a3.16,3.16,0,0,0,2,.5c1.27-.09,1.57-.61,1.57-.61V16.55Z"/><path class="cls-6" d="M24.23,18.34v1.58a3.68,3.68,0,0,0,2.18.46c1.48-.05,1.68-.47,1.68-.47l.09-1.57Z"/><ellipse class="cls-6" cx="26.2" cy="18.34" rx="1.97" ry="0.77"/><polygon class="cls-8" points="24.99 21.66 25.57 21.28 26.69 21.89 26.45 22.03 25.68 22.08 24.99 21.66"/><polygon class="cls-9" points="26.56 21.99 27.14 21.55 25.64 20.79 24.52 21.51 25.68 22.08 26.56 21.99"/><ellipse class="cls-6" cx="26.12" cy="23.03" rx="2.06" ry="0.97"/><ellipse class="cls-6" cx="22.1" cy="16.55" rx="1.8" ry="0.75"/><path class="cls-10" d="M43.44,42.14l6.64-5.36a.88.88,0,0,1,.92-.11L55.8,39a.89.89,0,0,0,1-.14l1.93-1.74a.87.87,0,0,1,1.41.38l3.14,9.44A.88.88,0,0,1,62.51,48L46.68,49.87A.87.87,0,0,1,46,48.35l1.37-1.22a.88.88,0,0,0-.14-1.41l-3.68-2.14A.88.88,0,0,1,43.44,42.14Z"/><ellipse class="cls-10" cx="41.21" cy="36.21" rx="4.45" ry="2.89" transform="translate(-1.29 1.52) rotate(-2.08)"/></svg>